<svg width="21" height="16" viewBox="0 0 21 16" fill="none" xmlns="http://www.w3.org/2000/svg">
<path d="M20.5248 1.881C19.7976 2.2 19.0227 2.41144 18.2148 2.51411C19.0459 2.01789 19.6802 1.23811 19.9785 0.298222C19.2036 0.760222 18.348 1.08656 17.4362 1.26867C16.7005 0.485222 15.6518 0 14.5078 0C12.2882 0 10.5013 1.80156 10.5013 4.01011C10.5013 4.32789 10.5282 4.63344 10.5942 4.92433C7.26124 4.76178 4.31202 3.16433 2.33079 0.730889C1.9849 1.331 1.78202 2.01789 1.78202 2.75733C1.78202 4.14578 2.49702 5.37656 3.56279 6.08911C2.91868 6.07689 2.28679 5.88989 1.75146 5.59533C1.75146 5.60756 1.75146 5.62344 1.75146 5.63933C1.75146 7.58756 3.14113 9.20578 4.96346 9.57856C4.63713 9.66778 4.28146 9.71056 3.91235 9.71056C3.65568 9.71056 3.39657 9.69589 3.15335 9.64211C3.67279 11.2298 5.14679 12.397 6.89946 12.4349C5.53546 13.5019 3.80357 14.1448 1.92868 14.1448C1.5999 14.1448 1.28457 14.1301 0.969238 14.0898C2.74513 15.235 4.84979 15.8889 7.11946 15.8889C14.4968 15.8889 18.5301 9.77778 18.5301 4.48067C18.5301 4.30344 18.524 4.13233 18.5155 3.96244C19.3111 3.39778 19.9797 2.69256 20.5248 1.881Z" fill="#EDDB69"/>
</svg>
